<?xml version="1.0" encoding="UTF-8" standalone="no"?>
<svg
   xmlns:dc="http://purl.org/dc/elements/1.1/"
   xmlns:cc="http://creativecommons.org/ns#"
   xmlns:rdf="http://www.w3.org/1999/02/22-rdf-syntax-ns#"
   xmlns:svg="http://www.w3.org/2000/svg"
   xmlns="http://www.w3.org/2000/svg"
   xmlns:sodipodi="http://sodipodi.sourceforge.net/DTD/sodipodi-0.dtd"
   xmlns:inkscape="http://www.inkscape.org/namespaces/inkscape"
   sodipodi:docname="fender_cut.svg"
   inkscape:version="1.0 (4035a4fb49, 2020-05-01)"
   id="svg8"
   version="1.1"
   viewBox="0 0 210 297"
   height="297mm"
   width="210mm">
  <defs
     id="defs2" />
  <sodipodi:namedview
     inkscape:window-maximized="1"
     inkscape:window-y="-9"
     inkscape:window-x="-9"
     inkscape:window-height="1001"
     inkscape:window-width="1920"
     showgrid="true"
     inkscape:document-rotation="0"
     inkscape:current-layer="layer1"
     inkscape:document-units="mm"
     inkscape:cy="908.07991"
     inkscape:cx="381.56735"
     inkscape:zoom="0.7"
     inkscape:pageshadow="2"
     inkscape:pageopacity="0.0"
     borderopacity="1.0"
     bordercolor="#666666"
     pagecolor="#ffffff"
     id="base">
    <inkscape:grid
       spacingy="1"
       spacingx="1"
       units="mm"
       id="grid10"
       type="xygrid" />
  </sodipodi:namedview>
  <metadata
     id="metadata5">
    <rdf:RDF>
      <cc:Work
         rdf:about="">
        <dc:format>image/svg+xml</dc:format>
        <dc:type
           rdf:resource="http://purl.org/dc/dcmitype/StillImage" />
        <dc:title></dc:title>
      </cc:Work>
    </rdf:RDF>
  </metadata>
  <g
     id="layer1"
     inkscape:groupmode="layer"
     inkscape:label="Laag 1">
    <path
       sodipodi:nodetypes="csssassssssssc"
       id="path12"
       d="m 60.14046,296.13229 v 0 c 0,0 0.292081,0.49998 -0.443134,0.5302 -1.084396,0.0446 -11.592313,-12.7099 -14.923394,-14.28498 -2.633472,-1.24522 -9.784092,-1.20656 -14.70132,-1.21844 -4.875994,-0.0118 -11.932152,-0.0268 -14.583708,1.13779 -2.767439,1.21546 -12.069628,11.44233 -14.69968797,14.01222 -0.495553,0.48421 -0.609724,-0.11012 -0.648756,-0.17679 -0.250231,-0.42741 8.64607497,-10.14111 13.99999997,-14 0.604664,-0.43582 1.264785,-0.87746 2,-1 6,-1 9.321444,-1 14,-1 4.678556,0 8,0 14,1 0.735215,0.12254 1.395336,0.56418 2,1 5.353925,3.85889 14,14 14,14 z"
       style="fill:none;stroke:#000000;stroke-width:0.264583px;stroke-linecap:butt;stroke-linejoin:miter;stroke-opacity:1" />
  </g>
</svg>
