<?xml version="1.0" encoding="UTF-8" standalone="no"?>
<!-- Created with Inkscape (http://www.inkscape.org/) -->

<svg
   width="210mm"
   height="297mm"
   viewBox="0 0 210 297"
   version="1.1"
   id="svg5"
   inkscape:version="1.1.1 (3bf5ae0d25, 2021-09-20)"
   sodipodi:docname="kierhouder.svg"
   xmlns:inkscape="http://www.inkscape.org/namespaces/inkscape"
   xmlns:sodipodi="http://sodipodi.sourceforge.net/DTD/sodipodi-0.dtd"
   xmlns="http://www.w3.org/2000/svg"
   xmlns:svg="http://www.w3.org/2000/svg">
  <sodipodi:namedview
     id="namedview7"
     pagecolor="#ffffff"
     bordercolor="#666666"
     borderopacity="1.0"
     inkscape:pageshadow="2"
     inkscape:pageopacity="0.0"
     inkscape:pagecheckerboard="0"
     inkscape:document-units="mm"
     showgrid="true"
     inkscape:lockguides="false"
     inkscape:zoom="5.9295174"
     inkscape:cx="76.65042"
     inkscape:cy="1061.5535"
     inkscape:window-width="1920"
     inkscape:window-height="1017"
     inkscape:window-x="-8"
     inkscape:window-y="-8"
     inkscape:window-maximized="1"
     inkscape:current-layer="layer1">
    <inkscape:grid
       type="xygrid"
       id="grid63"
       units="mm"
       spacingx="0.5"
       spacingy="0.5"
       color="#9090ff"
       opacity="0.1254902" />
  </sodipodi:namedview>
  <defs
     id="defs2" />
  <g
     inkscape:label="Laag 1"
     inkscape:groupmode="layer"
     id="layer1">
    <path
       style="fill:none;stroke:#000000;stroke-width:0.264583px;stroke-linecap:butt;stroke-linejoin:miter;stroke-opacity:1"
       d="M 0.05833333,292.55417 0,281.5 c 0,-0.5 -0.016098,-0.56622 0.5,-1 0.5160977,-0.43378 0.5,-1 0.5,-1 l 0.058333,-6.94583 c 0,-4.5 7.5,-5 7.5,0 v 17.51427 c 0,0.48573 0,1.48573 1.4242789,1.48573 H 68.558332 c 1.607101,-0.051 1.500001,2 1e-6,4 -1.5,2 -6.831564,8.5 -12.5,8.5 v -7.5 h -17 l -0.5,7.5 c 0,0 -28.9999997,-9 -30.4999997,-9.5 -1.5,-0.5 -2,-0.5 -2,-1.5 v -20 c 0,-2 -2.5,-2 -2.5,0 v 19.5 z"
       id="path65"
       sodipodi:nodetypes="cczccccccccccczzcccc" />
  </g>
</svg>
