solid OpenSCAD_Model
  facet normal 0 0 -1
    outer loop
      vertex 52.28 21.5 -1.5
      vertex 27.96 24.5 -1.5
      vertex 52.04 24.5 -1.5
    endloop
  endfacet
  facet normal 0 -0 -1
    outer loop
      vertex 27.96 24.5 -1.5
      vertex 52.28 21.5 -1.5
      vertex 27.72 21.5 -1.5
    endloop
  endfacet
  facet normal 0 0 -1
    outer loop
      vertex 57 2 -1.5
      vertex 55.5 3 -1.5
      vertex 57 3 -1.5
    endloop
  endfacet
  facet normal 0 0 -1
    outer loop
      vertex 54 0 -1.5
      vertex 55.5 6 -1.5
      vertex 55.5 3 -1.5
    endloop
  endfacet
  facet normal 0 0 -1
    outer loop
      vertex 54 0 -1.5
      vertex 55.5 3 -1.5
      vertex 57 2 -1.5
    endloop
  endfacet
  facet normal -0 0 -1
    outer loop
      vertex 55.5 6 -1.5
      vertex 54 0 -1.5
      vertex 55 8 -1.5
    endloop
  endfacet
  facet normal 0 0 -1
    outer loop
      vertex 52.28 21.5 -1.5
      vertex 55 8 -1.5
      vertex 54 0 -1.5
    endloop
  endfacet
  facet normal 0 0 -1
    outer loop
      vertex 53.5 24 -1.5
      vertex 53.4531 24.5 -1.5
      vertex 53.5 24.5 -1.5
    endloop
  endfacet
  facet normal 0 0 -1
    outer loop
      vertex 55 8 -1.5
      vertex 52.28 21.5 -1.5
      vertex 53.5 24 -1.5
    endloop
  endfacet
  facet normal 0 0 -1
    outer loop
      vertex 52.04 24.5 -1.5
      vertex 53.5 24 -1.5
      vertex 52.28 21.5 -1.5
    endloop
  endfacet
  facet normal 0 0 -1
    outer loop
      vertex 53.5 24 -1.5
      vertex 52.04 24.5 -1.5
      vertex 53.4531 24.5 -1.5
    endloop
  endfacet
  facet normal 0 0 -1
    outer loop
      vertex 52.04 24.5 -1.5
      vertex 52 40 -1.5
      vertex 53.4531 24.5 -1.5
    endloop
  endfacet
  facet normal 0 0 -1
    outer loop
      vertex 50 50 -1.5
      vertex 52 40 -1.5
      vertex 52.04 24.5 -1.5
    endloop
  endfacet
  facet normal 0 0 -1
    outer loop
      vertex 51.5 46 -1.5
      vertex 50 50 -1.5
      vertex 51.5 47 -1.5
    endloop
  endfacet
  facet normal 0 0 -1
    outer loop
      vertex 52 40 -1.5
      vertex 50 50 -1.5
      vertex 51.5 46 -1.5
    endloop
  endfacet
  facet normal 0 0 -1
    outer loop
      vertex 55.5 6 -1.5
      vertex 58 7 -1.5
      vertex 58 6 -1.5
    endloop
  endfacet
  facet normal -0 0 -1
    outer loop
      vertex 58 7 -1.5
      vertex 55.5 6 -1.5
      vertex 55 8 -1.5
    endloop
  endfacet
  facet normal 0 0 -1
    outer loop
      vertex 51.5 46 -1.5
      vertex 55 45 -1.5
      vertex 52 40 -1.5
    endloop
  endfacet
  facet normal 0 0 -1
    outer loop
      vertex 55 45 -1.5
      vertex 51.5 46 -1.5
      vertex 55 46 -1.5
    endloop
  endfacet
  facet normal 0 0 -1
    outer loop
      vertex 51.5 47 -1.5
      vertex 52.5 48 -1.5
      vertex 52.5 47 -1.5
    endloop
  endfacet
  facet normal -0 0 -1
    outer loop
      vertex 52.5 48 -1.5
      vertex 51.5 47 -1.5
      vertex 50 50 -1.5
    endloop
  endfacet
  facet normal 0 0 -1
    outer loop
      vertex 30 50 -1.5
      vertex 28 40 -1.5
      vertex 28.5 46 -1.5
    endloop
  endfacet
  facet normal 0 0 -1
    outer loop
      vertex 27.96 24.5 -1.5
      vertex 28 40 -1.5
      vertex 30 50 -1.5
    endloop
  endfacet
  facet normal 0 0 -1
    outer loop
      vertex 26.5 24 -1.5
      vertex 27.96 24.5 -1.5
      vertex 27.72 21.5 -1.5
    endloop
  endfacet
  facet normal 0 0 -1
    outer loop
      vertex 27.96 24.5 -1.5
      vertex 26.5469 24.5 -1.5
      vertex 28 40 -1.5
    endloop
  endfacet
  facet normal -0 0 -1
    outer loop
      vertex 27.96 24.5 -1.5
      vertex 26.5 24 -1.5
      vertex 26.5469 24.5 -1.5
    endloop
  endfacet
  facet normal 0 0 -1
    outer loop
      vertex 25 8 -1.5
      vertex 27.72 21.5 -1.5
      vertex 26 0 -1.5
    endloop
  endfacet
  facet normal -0 0 -1
    outer loop
      vertex 27.72 21.5 -1.5
      vertex 25 8 -1.5
      vertex 26.5 24 -1.5
    endloop
  endfacet
  facet normal 0 0 -1
    outer loop
      vertex 24.5 6 -1.5
      vertex 26 0 -1.5
      vertex 24.5 3 -1.5
    endloop
  endfacet
  facet normal 0 0 -1
    outer loop
      vertex 23 2 -1.5
      vertex 24.5 3 -1.5
      vertex 26 0 -1.5
    endloop
  endfacet
  facet normal -0 0 -1
    outer loop
      vertex 24.5 3 -1.5
      vertex 23 2 -1.5
      vertex 23 3 -1.5
    endloop
  endfacet
  facet normal 0 0 -1
    outer loop
      vertex 28.5 47 -1.5
      vertex 30 50 -1.5
      vertex 28.5 46 -1.5
    endloop
  endfacet
  facet normal 0 0 -1
    outer loop
      vertex 27.5 48 -1.5
      vertex 28.5 47 -1.5
      vertex 27.5 47 -1.5
    endloop
  endfacet
  facet normal 0 0 -1
    outer loop
      vertex 28.5 47 -1.5
      vertex 27.5 48 -1.5
      vertex 30 50 -1.5
    endloop
  endfacet
  facet normal 0 0 -1
    outer loop
      vertex 25 45 -1.5
      vertex 28.5 46 -1.5
      vertex 28 40 -1.5
    endloop
  endfacet
  facet normal -0 0 -1
    outer loop
      vertex 28.5 46 -1.5
      vertex 25 45 -1.5
      vertex 25 46 -1.5
    endloop
  endfacet
  facet normal -0 0 -1
    outer loop
      vertex 26.5469 24.5 -1.5
      vertex 26.5 24 -1.5
      vertex 26.5 24.5 -1.5
    endloop
  endfacet
  facet normal 0 0 -1
    outer loop
      vertex 26 0 -1.5
      vertex 24.5 6 -1.5
      vertex 25 8 -1.5
    endloop
  endfacet
  facet normal 0 0 -1
    outer loop
      vertex 22 7 -1.5
      vertex 24.5 6 -1.5
      vertex 22 6 -1.5
    endloop
  endfacet
  facet normal 0 0 -1
    outer loop
      vertex 24.5 6 -1.5
      vertex 22 7 -1.5
      vertex 25 8 -1.5
    endloop
  endfacet
  facet normal 0 0 1
    outer loop
      vertex 52.5 48 1.5
      vertex 51.5 47 1.5
      vertex 52.5 47 1.5
    endloop
  endfacet
  facet normal 0 0 1
    outer loop
      vertex 51.5 47 1.5
      vertex 50 50 1.5
      vertex 51.5 46 1.5
    endloop
  endfacet
  facet normal 0 0 1
    outer loop
      vertex 50 50 1.5
      vertex 51.5 47 1.5
      vertex 52.5 48 1.5
    endloop
  endfacet
  facet normal -0 0 1
    outer loop
      vertex 51.5 46 1.5
      vertex 55 45 1.5
      vertex 55 46 1.5
    endloop
  endfacet
  facet normal 0 0 1
    outer loop
      vertex 55 45 1.5
      vertex 51.5 46 1.5
      vertex 52 40 1.5
    endloop
  endfacet
  facet normal 0 0 1
    outer loop
      vertex 53.5 24.5 1.5
      vertex 53.4531 24.5 1.5
      vertex 53.5 24 1.5
    endloop
  endfacet
  facet normal 0 0 1
    outer loop
      vertex 58 7 1.5
      vertex 55.5 6 1.5
      vertex 58 6 1.5
    endloop
  endfacet
  facet normal 0 0 1
    outer loop
      vertex 54 0 1.5
      vertex 55.5 6 1.5
      vertex 55 8 1.5
    endloop
  endfacet
  facet normal 0 0 1
    outer loop
      vertex 55 8 1.5
      vertex 55.5 6 1.5
      vertex 58 7 1.5
    endloop
  endfacet
  facet normal -0 0 1
    outer loop
      vertex 55.5 3 1.5
      vertex 57 2 1.5
      vertex 57 3 1.5
    endloop
  endfacet
  facet normal 0 0 1
    outer loop
      vertex 55.5 3 1.5
      vertex 54 0 1.5
      vertex 57 2 1.5
    endloop
  endfacet
  facet normal 0 0 1
    outer loop
      vertex 55.5 6 1.5
      vertex 54 0 1.5
      vertex 55.5 3 1.5
    endloop
  endfacet
  facet normal -0 0 1
    outer loop
      vertex 52.28 21.5 1.5
      vertex 55 8 1.5
      vertex 53.5 24 1.5
    endloop
  endfacet
  facet normal -0 0 1
    outer loop
      vertex 52.04 24.5 1.5
      vertex 53.5 24 1.5
      vertex 53.4531 24.5 1.5
    endloop
  endfacet
  facet normal 0 0 1
    outer loop
      vertex 55 8 1.5
      vertex 52.28 21.5 1.5
      vertex 54 0 1.5
    endloop
  endfacet
  facet normal 0 0 1
    outer loop
      vertex 53.5 24 1.5
      vertex 52.04 24.5 1.5
      vertex 52.28 21.5 1.5
    endloop
  endfacet
  facet normal 0 0 1
    outer loop
      vertex 52 40 1.5
      vertex 52.04 24.5 1.5
      vertex 53.4531 24.5 1.5
    endloop
  endfacet
  facet normal 0 0 1
    outer loop
      vertex 50 50 1.5
      vertex 52 40 1.5
      vertex 51.5 46 1.5
    endloop
  endfacet
  facet normal 0 0 1
    outer loop
      vertex 52 40 1.5
      vertex 50 50 1.5
      vertex 52.04 24.5 1.5
    endloop
  endfacet
  facet normal -0 0 1
    outer loop
      vertex 27.96 24.5 1.5
      vertex 52.28 21.5 1.5
      vertex 52.04 24.5 1.5
    endloop
  endfacet
  facet normal 0 0 1
    outer loop
      vertex 52.28 21.5 1.5
      vertex 27.96 24.5 1.5
      vertex 27.72 21.5 1.5
    endloop
  endfacet
  facet normal -0 0 1
    outer loop
      vertex 22 7 1.5
      vertex 24.5 6 1.5
      vertex 25 8 1.5
    endloop
  endfacet
  facet normal 0 0 1
    outer loop
      vertex 24.5 6 1.5
      vertex 22 7 1.5
      vertex 22 6 1.5
    endloop
  endfacet
  facet normal 0 0 1
    outer loop
      vertex 25 45 1.5
      vertex 28.5 46 1.5
      vertex 25 46 1.5
    endloop
  endfacet
  facet normal 0 0 1
    outer loop
      vertex 28.5 46 1.5
      vertex 25 45 1.5
      vertex 28 40 1.5
    endloop
  endfacet
  facet normal -0 0 1
    outer loop
      vertex 27.5 48 1.5
      vertex 28.5 47 1.5
      vertex 30 50 1.5
    endloop
  endfacet
  facet normal 0 0 1
    outer loop
      vertex 28.5 47 1.5
      vertex 27.5 48 1.5
      vertex 27.5 47 1.5
    endloop
  endfacet
  facet normal 0 0 1
    outer loop
      vertex 28.5 46 1.5
      vertex 30 50 1.5
      vertex 28.5 47 1.5
    endloop
  endfacet
  facet normal 0 0 1
    outer loop
      vertex 28 40 1.5
      vertex 30 50 1.5
      vertex 28.5 46 1.5
    endloop
  endfacet
  facet normal -0 0 1
    outer loop
      vertex 28 40 1.5
      vertex 27.96 24.5 1.5
      vertex 30 50 1.5
    endloop
  endfacet
  facet normal 0 0 1
    outer loop
      vertex 26.5469 24.5 1.5
      vertex 27.96 24.5 1.5
      vertex 28 40 1.5
    endloop
  endfacet
  facet normal 0 0 1
    outer loop
      vertex 26.5 24 1.5
      vertex 27.96 24.5 1.5
      vertex 26.5469 24.5 1.5
    endloop
  endfacet
  facet normal 0 0 1
    outer loop
      vertex 26.5 24 1.5
      vertex 26.5469 24.5 1.5
      vertex 26.5 24.5 1.5
    endloop
  endfacet
  facet normal 0 0 1
    outer loop
      vertex 27.96 24.5 1.5
      vertex 26.5 24 1.5
      vertex 27.72 21.5 1.5
    endloop
  endfacet
  facet normal 0 0 1
    outer loop
      vertex 25 8 1.5
      vertex 27.72 21.5 1.5
      vertex 26.5 24 1.5
    endloop
  endfacet
  facet normal 0 0 1
    outer loop
      vertex 27.72 21.5 1.5
      vertex 25 8 1.5
      vertex 26 0 1.5
    endloop
  endfacet
  facet normal -0 0 1
    outer loop
      vertex 24.5 6 1.5
      vertex 26 0 1.5
      vertex 25 8 1.5
    endloop
  endfacet
  facet normal -0 0 1
    outer loop
      vertex 24.5 3 1.5
      vertex 26 0 1.5
      vertex 24.5 6 1.5
    endloop
  endfacet
  facet normal 0 0 1
    outer loop
      vertex 23 2 1.5
      vertex 24.5 3 1.5
      vertex 23 3 1.5
    endloop
  endfacet
  facet normal 0 0 1
    outer loop
      vertex 24.5 3 1.5
      vertex 23 2 1.5
      vertex 26 0 1.5
    endloop
  endfacet
  facet normal 1 -0 0
    outer loop
      vertex 57 2 1.5
      vertex 57 3 -1.5
      vertex 57 3 1.5
    endloop
  endfacet
  facet normal 1 0 0
    outer loop
      vertex 57 3 -1.5
      vertex 57 2 1.5
      vertex 57 2 -1.5
    endloop
  endfacet
  facet normal 0 1 -0
    outer loop
      vertex 57 3 -1.5
      vertex 55.5 3 1.5
      vertex 57 3 1.5
    endloop
  endfacet
  facet normal 0 1 0
    outer loop
      vertex 55.5 3 1.5
      vertex 57 3 -1.5
      vertex 55.5 3 -1.5
    endloop
  endfacet
  facet normal 1 -0 0
    outer loop
      vertex 55.5 3 1.5
      vertex 55.5 6 -1.5
      vertex 55.5 6 1.5
    endloop
  endfacet
  facet normal 1 0 0
    outer loop
      vertex 55.5 6 -1.5
      vertex 55.5 3 1.5
      vertex 55.5 3 -1.5
    endloop
  endfacet
  facet normal 0 -1 0
    outer loop
      vertex 55.5 6 -1.5
      vertex 58 6 1.5
      vertex 55.5 6 1.5
    endloop
  endfacet
  facet normal 0 -1 -0
    outer loop
      vertex 58 6 1.5
      vertex 55.5 6 -1.5
      vertex 58 6 -1.5
    endloop
  endfacet
  facet normal 1 -0 0
    outer loop
      vertex 58 6 1.5
      vertex 58 7 -1.5
      vertex 58 7 1.5
    endloop
  endfacet
  facet normal 1 0 0
    outer loop
      vertex 58 7 -1.5
      vertex 58 6 1.5
      vertex 58 6 -1.5
    endloop
  endfacet
  facet normal 0.316228 0.948683 -0
    outer loop
      vertex 58 7 -1.5
      vertex 55 8 1.5
      vertex 58 7 1.5
    endloop
  endfacet
  facet normal 0.316228 0.948683 0
    outer loop
      vertex 55 8 1.5
      vertex 58 7 -1.5
      vertex 55 8 -1.5
    endloop
  endfacet
  facet normal 0.995634 0.0933407 0
    outer loop
      vertex 55 8 1.5
      vertex 53.5 24 -1.5
      vertex 53.5 24 1.5
    endloop
  endfacet
  facet normal 0.995634 0.0933407 0
    outer loop
      vertex 53.5 24 -1.5
      vertex 55 8 1.5
      vertex 55 8 -1.5
    endloop
  endfacet
  facet normal 0.995634 0.0933391 0
    outer loop
      vertex 53.4531 24.5 1.5
      vertex 52 40 -1.5
      vertex 52 40 1.5
    endloop
  endfacet
  facet normal 0.995634 0.0933391 0
    outer loop
      vertex 52 40 -1.5
      vertex 53.4531 24.5 1.5
      vertex 53.4531 24.5 -1.5
    endloop
  endfacet
  facet normal 0.857493 -0.514496 0
    outer loop
      vertex 52 40 1.5
      vertex 55 45 -1.5
      vertex 55 45 1.5
    endloop
  endfacet
  facet normal 0.857493 -0.514496 0
    outer loop
      vertex 55 45 -1.5
      vertex 52 40 1.5
      vertex 52 40 -1.5
    endloop
  endfacet
  facet normal 1 -0 0
    outer loop
      vertex 55 45 1.5
      vertex 55 46 -1.5
      vertex 55 46 1.5
    endloop
  endfacet
  facet normal 1 0 0
    outer loop
      vertex 55 46 -1.5
      vertex 55 45 1.5
      vertex 55 45 -1.5
    endloop
  endfacet
  facet normal 0 1 -0
    outer loop
      vertex 55 46 -1.5
      vertex 51.5 46 1.5
      vertex 55 46 1.5
    endloop
  endfacet
  facet normal 0 1 0
    outer loop
      vertex 51.5 46 1.5
      vertex 55 46 -1.5
      vertex 51.5 46 -1.5
    endloop
  endfacet
  facet normal 1 -0 0
    outer loop
      vertex 51.5 46 1.5
      vertex 51.5 47 -1.5
      vertex 51.5 47 1.5
    endloop
  endfacet
  facet normal 1 0 0
    outer loop
      vertex 51.5 47 -1.5
      vertex 51.5 46 1.5
      vertex 51.5 46 -1.5
    endloop
  endfacet
  facet normal 0 -1 0
    outer loop
      vertex 51.5 47 -1.5
      vertex 52.5 47 1.5
      vertex 51.5 47 1.5
    endloop
  endfacet
  facet normal 0 -1 -0
    outer loop
      vertex 52.5 47 1.5
      vertex 51.5 47 -1.5
      vertex 52.5 47 -1.5
    endloop
  endfacet
  facet normal 1 -0 0
    outer loop
      vertex 52.5 47 1.5
      vertex 52.5 48 -1.5
      vertex 52.5 48 1.5
    endloop
  endfacet
  facet normal 1 0 0
    outer loop
      vertex 52.5 48 -1.5
      vertex 52.5 47 1.5
      vertex 52.5 47 -1.5
    endloop
  endfacet
  facet normal 0.624695 0.780869 -0
    outer loop
      vertex 52.5 48 -1.5
      vertex 50 50 1.5
      vertex 52.5 48 1.5
    endloop
  endfacet
  facet normal 0.624695 0.780869 0
    outer loop
      vertex 50 50 1.5
      vertex 52.5 48 -1.5
      vertex 50 50 -1.5
    endloop
  endfacet
  facet normal -0.996815 -0.0797452 0
    outer loop
      vertex 54 0 -1.5
      vertex 52.28 21.5 1.5
      vertex 52.28 21.5 -1.5
    endloop
  endfacet
  facet normal -0.996815 -0.0797452 0
    outer loop
      vertex 52.28 21.5 1.5
      vertex 54 0 -1.5
      vertex 54 0 1.5
    endloop
  endfacet
  facet normal -0.996815 -0.0797452 0
    outer loop
      vertex 52.04 24.5 -1.5
      vertex 50 50 1.5
      vertex 50 50 -1.5
    endloop
  endfacet
  facet normal -0.996815 -0.0797452 0
    outer loop
      vertex 50 50 1.5
      vertex 52.04 24.5 -1.5
      vertex 52.04 24.5 1.5
    endloop
  endfacet
  facet normal 0.5547 -0.83205 0
    outer loop
      vertex 54 0 -1.5
      vertex 57 2 1.5
      vertex 54 0 1.5
    endloop
  endfacet
  facet normal 0.5547 -0.83205 0
    outer loop
      vertex 57 2 1.5
      vertex 54 0 -1.5
      vertex 57 2 -1.5
    endloop
  endfacet
  facet normal -1 0 0
    outer loop
      vertex 23 2 -1.5
      vertex 23 3 1.5
      vertex 23 3 -1.5
    endloop
  endfacet
  facet normal -1 -0 0
    outer loop
      vertex 23 3 1.5
      vertex 23 2 -1.5
      vertex 23 2 1.5
    endloop
  endfacet
  facet normal 0 1 -0
    outer loop
      vertex 24.5 3 -1.5
      vertex 23 3 1.5
      vertex 24.5 3 1.5
    endloop
  endfacet
  facet normal 0 1 0
    outer loop
      vertex 23 3 1.5
      vertex 24.5 3 -1.5
      vertex 23 3 -1.5
    endloop
  endfacet
  facet normal -1 0 0
    outer loop
      vertex 24.5 3 -1.5
      vertex 24.5 6 1.5
      vertex 24.5 6 -1.5
    endloop
  endfacet
  facet normal -1 -0 0
    outer loop
      vertex 24.5 6 1.5
      vertex 24.5 3 -1.5
      vertex 24.5 3 1.5
    endloop
  endfacet
  facet normal 0 -1 0
    outer loop
      vertex 22 6 -1.5
      vertex 24.5 6 1.5
      vertex 22 6 1.5
    endloop
  endfacet
  facet normal 0 -1 -0
    outer loop
      vertex 24.5 6 1.5
      vertex 22 6 -1.5
      vertex 24.5 6 -1.5
    endloop
  endfacet
  facet normal -1 0 0
    outer loop
      vertex 22 6 -1.5
      vertex 22 7 1.5
      vertex 22 7 -1.5
    endloop
  endfacet
  facet normal -1 -0 0
    outer loop
      vertex 22 7 1.5
      vertex 22 6 -1.5
      vertex 22 6 1.5
    endloop
  endfacet
  facet normal -0.316228 0.948683 0
    outer loop
      vertex 25 8 -1.5
      vertex 22 7 1.5
      vertex 25 8 1.5
    endloop
  endfacet
  facet normal -0.316228 0.948683 0
    outer loop
      vertex 22 7 1.5
      vertex 25 8 -1.5
      vertex 22 7 -1.5
    endloop
  endfacet
  facet normal -0.995634 0.0933407 0
    outer loop
      vertex 25 8 -1.5
      vertex 26.5 24 1.5
      vertex 26.5 24 -1.5
    endloop
  endfacet
  facet normal -0.995634 0.0933407 0
    outer loop
      vertex 26.5 24 1.5
      vertex 25 8 -1.5
      vertex 25 8 1.5
    endloop
  endfacet
  facet normal -0.995634 0.0933391 0
    outer loop
      vertex 26.5469 24.5 -1.5
      vertex 28 40 1.5
      vertex 28 40 -1.5
    endloop
  endfacet
  facet normal -0.995634 0.0933391 0
    outer loop
      vertex 28 40 1.5
      vertex 26.5469 24.5 -1.5
      vertex 26.5469 24.5 1.5
    endloop
  endfacet
  facet normal -0.857493 -0.514496 0
    outer loop
      vertex 28 40 -1.5
      vertex 25 45 1.5
      vertex 25 45 -1.5
    endloop
  endfacet
  facet normal -0.857493 -0.514496 0
    outer loop
      vertex 25 45 1.5
      vertex 28 40 -1.5
      vertex 28 40 1.5
    endloop
  endfacet
  facet normal -1 0 0
    outer loop
      vertex 25 45 -1.5
      vertex 25 46 1.5
      vertex 25 46 -1.5
    endloop
  endfacet
  facet normal -1 -0 0
    outer loop
      vertex 25 46 1.5
      vertex 25 45 -1.5
      vertex 25 45 1.5
    endloop
  endfacet
  facet normal 0 1 -0
    outer loop
      vertex 28.5 46 -1.5
      vertex 25 46 1.5
      vertex 28.5 46 1.5
    endloop
  endfacet
  facet normal 0 1 0
    outer loop
      vertex 25 46 1.5
      vertex 28.5 46 -1.5
      vertex 25 46 -1.5
    endloop
  endfacet
  facet normal -1 0 0
    outer loop
      vertex 28.5 46 -1.5
      vertex 28.5 47 1.5
      vertex 28.5 47 -1.5
    endloop
  endfacet
  facet normal -1 -0 0
    outer loop
      vertex 28.5 47 1.5
      vertex 28.5 46 -1.5
      vertex 28.5 46 1.5
    endloop
  endfacet
  facet normal 0 -1 0
    outer loop
      vertex 27.5 47 -1.5
      vertex 28.5 47 1.5
      vertex 27.5 47 1.5
    endloop
  endfacet
  facet normal 0 -1 -0
    outer loop
      vertex 28.5 47 1.5
      vertex 27.5 47 -1.5
      vertex 28.5 47 -1.5
    endloop
  endfacet
  facet normal -1 0 0
    outer loop
      vertex 27.5 47 -1.5
      vertex 27.5 48 1.5
      vertex 27.5 48 -1.5
    endloop
  endfacet
  facet normal -1 -0 0
    outer loop
      vertex 27.5 48 1.5
      vertex 27.5 47 -1.5
      vertex 27.5 47 1.5
    endloop
  endfacet
  facet normal -0.624695 0.780869 0
    outer loop
      vertex 30 50 -1.5
      vertex 27.5 48 1.5
      vertex 30 50 1.5
    endloop
  endfacet
  facet normal -0.624695 0.780869 0
    outer loop
      vertex 27.5 48 1.5
      vertex 30 50 -1.5
      vertex 27.5 48 -1.5
    endloop
  endfacet
  facet normal 0.996815 -0.0797452 0
    outer loop
      vertex 26 0 1.5
      vertex 27.72 21.5 -1.5
      vertex 27.72 21.5 1.5
    endloop
  endfacet
  facet normal 0.996815 -0.0797452 0
    outer loop
      vertex 27.72 21.5 -1.5
      vertex 26 0 1.5
      vertex 26 0 -1.5
    endloop
  endfacet
  facet normal 0.996815 -0.0797452 0
    outer loop
      vertex 27.96 24.5 1.5
      vertex 30 50 -1.5
      vertex 30 50 1.5
    endloop
  endfacet
  facet normal 0.996815 -0.0797452 0
    outer loop
      vertex 30 50 -1.5
      vertex 27.96 24.5 1.5
      vertex 27.96 24.5 -1.5
    endloop
  endfacet
  facet normal -0.5547 -0.83205 0
    outer loop
      vertex 23 2 -1.5
      vertex 26 0 1.5
      vertex 23 2 1.5
    endloop
  endfacet
  facet normal -0.5547 -0.83205 -0
    outer loop
      vertex 26 0 1.5
      vertex 23 2 -1.5
      vertex 26 0 -1.5
    endloop
  endfacet
  facet normal -1 0 0
    outer loop
      vertex 26.5 24 -1.5
      vertex 26.5 24.5 1.5
      vertex 26.5 24.5 -1.5
    endloop
  endfacet
  facet normal -1 -0 0
    outer loop
      vertex 26.5 24.5 1.5
      vertex 26.5 24 -1.5
      vertex 26.5 24 1.5
    endloop
  endfacet
  facet normal 1 -0 0
    outer loop
      vertex 53.5 24 1.5
      vertex 53.5 24.5 -1.5
      vertex 53.5 24.5 1.5
    endloop
  endfacet
  facet normal 1 0 0
    outer loop
      vertex 53.5 24.5 -1.5
      vertex 53.5 24 1.5
      vertex 53.5 24 -1.5
    endloop
  endfacet
  facet normal 0 1 -0
    outer loop
      vertex 53.5 24.5 -1.5
      vertex 53.4531 24.5 1.5
      vertex 53.5 24.5 1.5
    endloop
  endfacet
  facet normal 0 1 0
    outer loop
      vertex 53.4531 24.5 1.5
      vertex 53.5 24.5 -1.5
      vertex 53.4531 24.5 -1.5
    endloop
  endfacet
  facet normal 0 1 -0
    outer loop
      vertex 26.5469 24.5 -1.5
      vertex 26.5 24.5 1.5
      vertex 26.5469 24.5 1.5
    endloop
  endfacet
  facet normal 0 1 0
    outer loop
      vertex 26.5 24.5 1.5
      vertex 26.5469 24.5 -1.5
      vertex 26.5 24.5 -1.5
    endloop
  endfacet
  facet normal 0 1 -0
    outer loop
      vertex 52.04 24.5 -1.5
      vertex 27.96 24.5 1.5
      vertex 52.04 24.5 1.5
    endloop
  endfacet
  facet normal 0 1 0
    outer loop
      vertex 27.96 24.5 1.5
      vertex 52.04 24.5 -1.5
      vertex 27.96 24.5 -1.5
    endloop
  endfacet
  facet normal 0 -1 0
    outer loop
      vertex 27.72 21.5 -1.5
      vertex 52.28 21.5 1.5
      vertex 27.72 21.5 1.5
    endloop
  endfacet
  facet normal 0 -1 -0
    outer loop
      vertex 52.28 21.5 1.5
      vertex 27.72 21.5 -1.5
      vertex 52.28 21.5 -1.5
    endloop
  endfacet
  facet normal 0 0 -1
    outer loop
      vertex 12.52 18.5 -1.5
      vertex -12.28 21.5 -1.5
      vertex 12.28 21.5 -1.5
    endloop
  endfacet
  facet normal 0 -0 -1
    outer loop
      vertex -12.28 21.5 -1.5
      vertex 12.52 18.5 -1.5
      vertex -12.52 18.5 -1.5
    endloop
  endfacet
  facet normal 0 0 -1
    outer loop
      vertex 17 2 -1.5
      vertex 15.5 3 -1.5
      vertex 17 3 -1.5
    endloop
  endfacet
  facet normal 0 0 -1
    outer loop
      vertex 14 0 -1.5
      vertex 15.5 6 -1.5
      vertex 15.5 3 -1.5
    endloop
  endfacet
  facet normal 0 0 -1
    outer loop
      vertex 14 0 -1.5
      vertex 15.5 3 -1.5
      vertex 17 2 -1.5
    endloop
  endfacet
  facet normal -0 0 -1
    outer loop
      vertex 15.5 6 -1.5
      vertex 14 0 -1.5
      vertex 15 8 -1.5
    endloop
  endfacet
  facet normal 0 0 -1
    outer loop
      vertex 12.52 18.5 -1.5
      vertex 15 8 -1.5
      vertex 14 0 -1.5
    endloop
  endfacet
  facet normal 0 0 -1
    outer loop
      vertex 12.28 21.5 -1.5
      vertex 15 8 -1.5
      vertex 12.52 18.5 -1.5
    endloop
  endfacet
  facet normal 0 0 -1
    outer loop
      vertex 12.28 21.5 -1.5
      vertex 12 40 -1.5
      vertex 15 8 -1.5
    endloop
  endfacet
  facet normal 0 0 -1
    outer loop
      vertex 10 50 -1.5
      vertex 12 40 -1.5
      vertex 12.28 21.5 -1.5
    endloop
  endfacet
  facet normal 0 0 -1
    outer loop
      vertex 11.5 46 -1.5
      vertex 10 50 -1.5
      vertex 11.5 47 -1.5
    endloop
  endfacet
  facet normal 0 0 -1
    outer loop
      vertex 12 40 -1.5
      vertex 10 50 -1.5
      vertex 11.5 46 -1.5
    endloop
  endfacet
  facet normal 0 0 -1
    outer loop
      vertex 15.5 6 -1.5
      vertex 18 7 -1.5
      vertex 18 6 -1.5
    endloop
  endfacet
  facet normal -0 0 -1
    outer loop
      vertex 18 7 -1.5
      vertex 15.5 6 -1.5
      vertex 15 8 -1.5
    endloop
  endfacet
  facet normal 0 0 -1
    outer loop
      vertex 11.5 46 -1.5
      vertex 15 45 -1.5
      vertex 12 40 -1.5
    endloop
  endfacet
  facet normal 0 0 -1
    outer loop
      vertex 15 45 -1.5
      vertex 11.5 46 -1.5
      vertex 15 46 -1.5
    endloop
  endfacet
  facet normal 0 0 -1
    outer loop
      vertex 11.5 47 -1.5
      vertex 12.5 48 -1.5
      vertex 12.5 47 -1.5
    endloop
  endfacet
  facet normal -0 0 -1
    outer loop
      vertex 12.5 48 -1.5
      vertex 11.5 47 -1.5
      vertex 10 50 -1.5
    endloop
  endfacet
  facet normal 0 0 -1
    outer loop
      vertex -10 50 -1.5
      vertex -12 40 -1.5
      vertex -11.5 46 -1.5
    endloop
  endfacet
  facet normal 0 0 -1
    outer loop
      vertex -12.28 21.5 -1.5
      vertex -12 40 -1.5
      vertex -10 50 -1.5
    endloop
  endfacet
  facet normal 0 0 -1
    outer loop
      vertex -15 8 -1.5
      vertex -12.28 21.5 -1.5
      vertex -12.52 18.5 -1.5
    endloop
  endfacet
  facet normal 0 0 -1
    outer loop
      vertex -15 8 -1.5
      vertex -12.52 18.5 -1.5
      vertex -14 0 -1.5
    endloop
  endfacet
  facet normal -0 0 -1
    outer loop
      vertex -12.28 21.5 -1.5
      vertex -15 8 -1.5
      vertex -12 40 -1.5
    endloop
  endfacet
  facet normal 0 0 -1
    outer loop
      vertex -15.5 6 -1.5
      vertex -14 0 -1.5
      vertex -15.5 3 -1.5
    endloop
  endfacet
  facet normal 0 0 -1
    outer loop
      vertex -17 2 -1.5
      vertex -15.5 3 -1.5
      vertex -14 0 -1.5
    endloop
  endfacet
  facet normal -0 0 -1
    outer loop
      vertex -15.5 3 -1.5
      vertex -17 2 -1.5
      vertex -17 3 -1.5
    endloop
  endfacet
  facet normal 0 0 -1
    outer loop
      vertex -11.5 47 -1.5
      vertex -10 50 -1.5
      vertex -11.5 46 -1.5
    endloop
  endfacet
  facet normal 0 0 -1
    outer loop
      vertex -12.5 48 -1.5
      vertex -11.5 47 -1.5
      vertex -12.5 47 -1.5
    endloop
  endfacet
  facet normal 0 0 -1
    outer loop
      vertex -11.5 47 -1.5
      vertex -12.5 48 -1.5
      vertex -10 50 -1.5
    endloop
  endfacet
  facet normal 0 0 -1
    outer loop
      vertex -15 45 -1.5
      vertex -11.5 46 -1.5
      vertex -12 40 -1.5
    endloop
  endfacet
  facet normal -0 0 -1
    outer loop
      vertex -11.5 46 -1.5
      vertex -15 45 -1.5
      vertex -15 46 -1.5
    endloop
  endfacet
  facet normal 0 0 -1
    outer loop
      vertex -14 0 -1.5
      vertex -15.5 6 -1.5
      vertex -15 8 -1.5
    endloop
  endfacet
  facet normal 0 0 -1
    outer loop
      vertex -18 7 -1.5
      vertex -15.5 6 -1.5
      vertex -18 6 -1.5
    endloop
  endfacet
  facet normal 0 0 -1
    outer loop
      vertex -15.5 6 -1.5
      vertex -18 7 -1.5
      vertex -15 8 -1.5
    endloop
  endfacet
  facet normal 0 0 1
    outer loop
      vertex 12.5 48 1.5
      vertex 11.5 47 1.5
      vertex 12.5 47 1.5
    endloop
  endfacet
  facet normal 0 0 1
    outer loop
      vertex 11.5 47 1.5
      vertex 10 50 1.5
      vertex 11.5 46 1.5
    endloop
  endfacet
  facet normal 0 0 1
    outer loop
      vertex 10 50 1.5
      vertex 11.5 47 1.5
      vertex 12.5 48 1.5
    endloop
  endfacet
  facet normal -0 0 1
    outer loop
      vertex 11.5 46 1.5
      vertex 15 45 1.5
      vertex 15 46 1.5
    endloop
  endfacet
  facet normal 0 0 1
    outer loop
      vertex 15 45 1.5
      vertex 11.5 46 1.5
      vertex 12 40 1.5
    endloop
  endfacet
  facet normal 0 0 1
    outer loop
      vertex 18 7 1.5
      vertex 15.5 6 1.5
      vertex 18 6 1.5
    endloop
  endfacet
  facet normal 0 0 1
    outer loop
      vertex 14 0 1.5
      vertex 15.5 6 1.5
      vertex 15 8 1.5
    endloop
  endfacet
  facet normal 0 0 1
    outer loop
      vertex 15 8 1.5
      vertex 15.5 6 1.5
      vertex 18 7 1.5
    endloop
  endfacet
  facet normal -0 0 1
    outer loop
      vertex 15.5 3 1.5
      vertex 17 2 1.5
      vertex 17 3 1.5
    endloop
  endfacet
  facet normal 0 0 1
    outer loop
      vertex 15.5 3 1.5
      vertex 14 0 1.5
      vertex 17 2 1.5
    endloop
  endfacet
  facet normal 0 0 1
    outer loop
      vertex 15.5 6 1.5
      vertex 14 0 1.5
      vertex 15.5 3 1.5
    endloop
  endfacet
  facet normal 0 0 1
    outer loop
      vertex 15 8 1.5
      vertex 12.52 18.5 1.5
      vertex 14 0 1.5
    endloop
  endfacet
  facet normal 0 0 1
    outer loop
      vertex 15 8 1.5
      vertex 12.28 21.5 1.5
      vertex 12.52 18.5 1.5
    endloop
  endfacet
  facet normal 0 0 1
    outer loop
      vertex 12 40 1.5
      vertex 12.28 21.5 1.5
      vertex 15 8 1.5
    endloop
  endfacet
  facet normal 0 0 1
    outer loop
      vertex 10 50 1.5
      vertex 12 40 1.5
      vertex 11.5 46 1.5
    endloop
  endfacet
  facet normal 0 0 1
    outer loop
      vertex 12 40 1.5
      vertex 10 50 1.5
      vertex 12.28 21.5 1.5
    endloop
  endfacet
  facet normal -0 0 1
    outer loop
      vertex -12.28 21.5 1.5
      vertex 12.52 18.5 1.5
      vertex 12.28 21.5 1.5
    endloop
  endfacet
  facet normal 0 0 1
    outer loop
      vertex 12.52 18.5 1.5
      vertex -12.28 21.5 1.5
      vertex -12.52 18.5 1.5
    endloop
  endfacet
  facet normal -0 0 1
    outer loop
      vertex -18 7 1.5
      vertex -15.5 6 1.5
      vertex -15 8 1.5
    endloop
  endfacet
  facet normal 0 0 1
    outer loop
      vertex -15.5 6 1.5
      vertex -18 7 1.5
      vertex -18 6 1.5
    endloop
  endfacet
  facet normal 0 0 1
    outer loop
      vertex -15 45 1.5
      vertex -11.5 46 1.5
      vertex -15 46 1.5
    endloop
  endfacet
  facet normal 0 0 1
    outer loop
      vertex -11.5 46 1.5
      vertex -15 45 1.5
      vertex -12 40 1.5
    endloop
  endfacet
  facet normal -0 0 1
    outer loop
      vertex -12.5 48 1.5
      vertex -11.5 47 1.5
      vertex -10 50 1.5
    endloop
  endfacet
  facet normal 0 0 1
    outer loop
      vertex -11.5 47 1.5
      vertex -12.5 48 1.5
      vertex -12.5 47 1.5
    endloop
  endfacet
  facet normal 0 0 1
    outer loop
      vertex -11.5 46 1.5
      vertex -10 50 1.5
      vertex -11.5 47 1.5
    endloop
  endfacet
  facet normal 0 0 1
    outer loop
      vertex -12 40 1.5
      vertex -10 50 1.5
      vertex -11.5 46 1.5
    endloop
  endfacet
  facet normal -0 0 1
    outer loop
      vertex -12 40 1.5
      vertex -12.28 21.5 1.5
      vertex -10 50 1.5
    endloop
  endfacet
  facet normal 0 0 1
    outer loop
      vertex -15 8 1.5
      vertex -12.28 21.5 1.5
      vertex -12 40 1.5
    endloop
  endfacet
  facet normal 0 0 1
    outer loop
      vertex -12.28 21.5 1.5
      vertex -15 8 1.5
      vertex -12.52 18.5 1.5
    endloop
  endfacet
  facet normal 0 0 1
    outer loop
      vertex -12.52 18.5 1.5
      vertex -15 8 1.5
      vertex -14 0 1.5
    endloop
  endfacet
  facet normal -0 0 1
    outer loop
      vertex -15.5 6 1.5
      vertex -14 0 1.5
      vertex -15 8 1.5
    endloop
  endfacet
  facet normal -0 0 1
    outer loop
      vertex -15.5 3 1.5
      vertex -14 0 1.5
      vertex -15.5 6 1.5
    endloop
  endfacet
  facet normal 0 0 1
    outer loop
      vertex -17 2 1.5
      vertex -15.5 3 1.5
      vertex -17 3 1.5
    endloop
  endfacet
  facet normal 0 0 1
    outer loop
      vertex -15.5 3 1.5
      vertex -17 2 1.5
      vertex -14 0 1.5
    endloop
  endfacet
  facet normal 1 -0 0
    outer loop
      vertex 17 2 1.5
      vertex 17 3 -1.5
      vertex 17 3 1.5
    endloop
  endfacet
  facet normal 1 0 0
    outer loop
      vertex 17 3 -1.5
      vertex 17 2 1.5
      vertex 17 2 -1.5
    endloop
  endfacet
  facet normal 0 1 -0
    outer loop
      vertex 17 3 -1.5
      vertex 15.5 3 1.5
      vertex 17 3 1.5
    endloop
  endfacet
  facet normal 0 1 0
    outer loop
      vertex 15.5 3 1.5
      vertex 17 3 -1.5
      vertex 15.5 3 -1.5
    endloop
  endfacet
  facet normal 1 -0 0
    outer loop
      vertex 15.5 3 1.5
      vertex 15.5 6 -1.5
      vertex 15.5 6 1.5
    endloop
  endfacet
  facet normal 1 0 0
    outer loop
      vertex 15.5 6 -1.5
      vertex 15.5 3 1.5
      vertex 15.5 3 -1.5
    endloop
  endfacet
  facet normal 0 -1 0
    outer loop
      vertex 15.5 6 -1.5
      vertex 18 6 1.5
      vertex 15.5 6 1.5
    endloop
  endfacet
  facet normal 0 -1 -0
    outer loop
      vertex 18 6 1.5
      vertex 15.5 6 -1.5
      vertex 18 6 -1.5
    endloop
  endfacet
  facet normal 1 -0 0
    outer loop
      vertex 18 6 1.5
      vertex 18 7 -1.5
      vertex 18 7 1.5
    endloop
  endfacet
  facet normal 1 0 0
    outer loop
      vertex 18 7 -1.5
      vertex 18 6 1.5
      vertex 18 6 -1.5
    endloop
  endfacet
  facet normal 0.316228 0.948683 -0
    outer loop
      vertex 18 7 -1.5
      vertex 15 8 1.5
      vertex 18 7 1.5
    endloop
  endfacet
  facet normal 0.316228 0.948683 0
    outer loop
      vertex 15 8 1.5
      vertex 18 7 -1.5
      vertex 15 8 -1.5
    endloop
  endfacet
  facet normal 0.995634 0.0933407 0
    outer loop
      vertex 15 8 1.5
      vertex 12 40 -1.5
      vertex 12 40 1.5
    endloop
  endfacet
  facet normal 0.995634 0.0933407 0
    outer loop
      vertex 12 40 -1.5
      vertex 15 8 1.5
      vertex 15 8 -1.5
    endloop
  endfacet
  facet normal 0.857493 -0.514496 0
    outer loop
      vertex 12 40 1.5
      vertex 15 45 -1.5
      vertex 15 45 1.5
    endloop
  endfacet
  facet normal 0.857493 -0.514496 0
    outer loop
      vertex 15 45 -1.5
      vertex 12 40 1.5
      vertex 12 40 -1.5
    endloop
  endfacet
  facet normal 1 -0 0
    outer loop
      vertex 15 45 1.5
      vertex 15 46 -1.5
      vertex 15 46 1.5
    endloop
  endfacet
  facet normal 1 0 0
    outer loop
      vertex 15 46 -1.5
      vertex 15 45 1.5
      vertex 15 45 -1.5
    endloop
  endfacet
  facet normal 0 1 -0
    outer loop
      vertex 15 46 -1.5
      vertex 11.5 46 1.5
      vertex 15 46 1.5
    endloop
  endfacet
  facet normal 0 1 0
    outer loop
      vertex 11.5 46 1.5
      vertex 15 46 -1.5
      vertex 11.5 46 -1.5
    endloop
  endfacet
  facet normal 1 -0 0
    outer loop
      vertex 11.5 46 1.5
      vertex 11.5 47 -1.5
      vertex 11.5 47 1.5
    endloop
  endfacet
  facet normal 1 0 0
    outer loop
      vertex 11.5 47 -1.5
      vertex 11.5 46 1.5
      vertex 11.5 46 -1.5
    endloop
  endfacet
  facet normal 0 -1 0
    outer loop
      vertex 11.5 47 -1.5
      vertex 12.5 47 1.5
      vertex 11.5 47 1.5
    endloop
  endfacet
  facet normal 0 -1 -0
    outer loop
      vertex 12.5 47 1.5
      vertex 11.5 47 -1.5
      vertex 12.5 47 -1.5
    endloop
  endfacet
  facet normal 1 -0 0
    outer loop
      vertex 12.5 47 1.5
      vertex 12.5 48 -1.5
      vertex 12.5 48 1.5
    endloop
  endfacet
  facet normal 1 0 0
    outer loop
      vertex 12.5 48 -1.5
      vertex 12.5 47 1.5
      vertex 12.5 47 -1.5
    endloop
  endfacet
  facet normal 0.624695 0.780869 -0
    outer loop
      vertex 12.5 48 -1.5
      vertex 10 50 1.5
      vertex 12.5 48 1.5
    endloop
  endfacet
  facet normal 0.624695 0.780869 0
    outer loop
      vertex 10 50 1.5
      vertex 12.5 48 -1.5
      vertex 10 50 -1.5
    endloop
  endfacet
  facet normal -0.996815 -0.0797452 0
    outer loop
      vertex 14 0 -1.5
      vertex 12.52 18.5 1.5
      vertex 12.52 18.5 -1.5
    endloop
  endfacet
  facet normal -0.996815 -0.0797452 0
    outer loop
      vertex 12.52 18.5 1.5
      vertex 14 0 -1.5
      vertex 14 0 1.5
    endloop
  endfacet
  facet normal -0.996815 -0.0797452 0
    outer loop
      vertex 12.28 21.5 -1.5
      vertex 10 50 1.5
      vertex 10 50 -1.5
    endloop
  endfacet
  facet normal -0.996815 -0.0797452 0
    outer loop
      vertex 10 50 1.5
      vertex 12.28 21.5 -1.5
      vertex 12.28 21.5 1.5
    endloop
  endfacet
  facet normal 0.5547 -0.83205 0
    outer loop
      vertex 14 0 -1.5
      vertex 17 2 1.5
      vertex 14 0 1.5
    endloop
  endfacet
  facet normal 0.5547 -0.83205 0
    outer loop
      vertex 17 2 1.5
      vertex 14 0 -1.5
      vertex 17 2 -1.5
    endloop
  endfacet
  facet normal -1 0 0
    outer loop
      vertex -17 2 -1.5
      vertex -17 3 1.5
      vertex -17 3 -1.5
    endloop
  endfacet
  facet normal -1 -0 0
    outer loop
      vertex -17 3 1.5
      vertex -17 2 -1.5
      vertex -17 2 1.5
    endloop
  endfacet
  facet normal 0 1 -0
    outer loop
      vertex -15.5 3 -1.5
      vertex -17 3 1.5
      vertex -15.5 3 1.5
    endloop
  endfacet
  facet normal 0 1 0
    outer loop
      vertex -17 3 1.5
      vertex -15.5 3 -1.5
      vertex -17 3 -1.5
    endloop
  endfacet
  facet normal -1 0 0
    outer loop
      vertex -15.5 3 -1.5
      vertex -15.5 6 1.5
      vertex -15.5 6 -1.5
    endloop
  endfacet
  facet normal -1 -0 0
    outer loop
      vertex -15.5 6 1.5
      vertex -15.5 3 -1.5
      vertex -15.5 3 1.5
    endloop
  endfacet
  facet normal 0 -1 0
    outer loop
      vertex -18 6 -1.5
      vertex -15.5 6 1.5
      vertex -18 6 1.5
    endloop
  endfacet
  facet normal 0 -1 -0
    outer loop
      vertex -15.5 6 1.5
      vertex -18 6 -1.5
      vertex -15.5 6 -1.5
    endloop
  endfacet
  facet normal -1 0 0
    outer loop
      vertex -18 6 -1.5
      vertex -18 7 1.5
      vertex -18 7 -1.5
    endloop
  endfacet
  facet normal -1 -0 0
    outer loop
      vertex -18 7 1.5
      vertex -18 6 -1.5
      vertex -18 6 1.5
    endloop
  endfacet
  facet normal -0.316228 0.948683 0
    outer loop
      vertex -15 8 -1.5
      vertex -18 7 1.5
      vertex -15 8 1.5
    endloop
  endfacet
  facet normal -0.316228 0.948683 0
    outer loop
      vertex -18 7 1.5
      vertex -15 8 -1.5
      vertex -18 7 -1.5
    endloop
  endfacet
  facet normal -0.995634 0.0933407 0
    outer loop
      vertex -15 8 -1.5
      vertex -12 40 1.5
      vertex -12 40 -1.5
    endloop
  endfacet
  facet normal -0.995634 0.0933407 0
    outer loop
      vertex -12 40 1.5
      vertex -15 8 -1.5
      vertex -15 8 1.5
    endloop
  endfacet
  facet normal -0.857493 -0.514496 0
    outer loop
      vertex -12 40 -1.5
      vertex -15 45 1.5
      vertex -15 45 -1.5
    endloop
  endfacet
  facet normal -0.857493 -0.514496 0
    outer loop
      vertex -15 45 1.5
      vertex -12 40 -1.5
      vertex -12 40 1.5
    endloop
  endfacet
  facet normal -1 0 0
    outer loop
      vertex -15 45 -1.5
      vertex -15 46 1.5
      vertex -15 46 -1.5
    endloop
  endfacet
  facet normal -1 -0 0
    outer loop
      vertex -15 46 1.5
      vertex -15 45 -1.5
      vertex -15 45 1.5
    endloop
  endfacet
  facet normal 0 1 -0
    outer loop
      vertex -11.5 46 -1.5
      vertex -15 46 1.5
      vertex -11.5 46 1.5
    endloop
  endfacet
  facet normal 0 1 0
    outer loop
      vertex -15 46 1.5
      vertex -11.5 46 -1.5
      vertex -15 46 -1.5
    endloop
  endfacet
  facet normal -1 0 0
    outer loop
      vertex -11.5 46 -1.5
      vertex -11.5 47 1.5
      vertex -11.5 47 -1.5
    endloop
  endfacet
  facet normal -1 -0 0
    outer loop
      vertex -11.5 47 1.5
      vertex -11.5 46 -1.5
      vertex -11.5 46 1.5
    endloop
  endfacet
  facet normal 0 -1 0
    outer loop
      vertex -12.5 47 -1.5
      vertex -11.5 47 1.5
      vertex -12.5 47 1.5
    endloop
  endfacet
  facet normal 0 -1 -0
    outer loop
      vertex -11.5 47 1.5
      vertex -12.5 47 -1.5
      vertex -11.5 47 -1.5
    endloop
  endfacet
  facet normal -1 0 0
    outer loop
      vertex -12.5 47 -1.5
      vertex -12.5 48 1.5
      vertex -12.5 48 -1.5
    endloop
  endfacet
  facet normal -1 -0 0
    outer loop
      vertex -12.5 48 1.5
      vertex -12.5 47 -1.5
      vertex -12.5 47 1.5
    endloop
  endfacet
  facet normal -0.624695 0.780869 0
    outer loop
      vertex -10 50 -1.5
      vertex -12.5 48 1.5
      vertex -10 50 1.5
    endloop
  endfacet
  facet normal -0.624695 0.780869 0
    outer loop
      vertex -12.5 48 1.5
      vertex -10 50 -1.5
      vertex -12.5 48 -1.5
    endloop
  endfacet
  facet normal 0.996815 -0.0797452 0
    outer loop
      vertex -14 0 1.5
      vertex -12.52 18.5 -1.5
      vertex -12.52 18.5 1.5
    endloop
  endfacet
  facet normal 0.996815 -0.0797452 0
    outer loop
      vertex -12.52 18.5 -1.5
      vertex -14 0 1.5
      vertex -14 0 -1.5
    endloop
  endfacet
  facet normal 0.996815 -0.0797452 0
    outer loop
      vertex -12.28 21.5 1.5
      vertex -10 50 -1.5
      vertex -10 50 1.5
    endloop
  endfacet
  facet normal 0.996815 -0.0797452 0
    outer loop
      vertex -10 50 -1.5
      vertex -12.28 21.5 1.5
      vertex -12.28 21.5 -1.5
    endloop
  endfacet
  facet normal -0.5547 -0.83205 0
    outer loop
      vertex -17 2 -1.5
      vertex -14 0 1.5
      vertex -17 2 1.5
    endloop
  endfacet
  facet normal -0.5547 -0.83205 -0
    outer loop
      vertex -14 0 1.5
      vertex -17 2 -1.5
      vertex -14 0 -1.5
    endloop
  endfacet
  facet normal 0 1 -0
    outer loop
      vertex 12.28 21.5 -1.5
      vertex -12.28 21.5 1.5
      vertex 12.28 21.5 1.5
    endloop
  endfacet
  facet normal 0 1 0
    outer loop
      vertex -12.28 21.5 1.5
      vertex 12.28 21.5 -1.5
      vertex -12.28 21.5 -1.5
    endloop
  endfacet
  facet normal 0 -1 0
    outer loop
      vertex -12.52 18.5 -1.5
      vertex 12.52 18.5 1.5
      vertex -12.52 18.5 1.5
    endloop
  endfacet
  facet normal 0 -1 -0
    outer loop
      vertex 12.52 18.5 1.5
      vertex -12.52 18.5 -1.5
      vertex 12.52 18.5 -1.5
    endloop
  endfacet
endsolid OpenSCAD_Model
