<?xml version="1.0" encoding="UTF-8" standalone="no"?>
<!-- Created with Inkscape (http://www.inkscape.org/) -->

<svg
   width="210mm"
   height="297mm"
   viewBox="0 0 210 297"
   version="1.1"
   id="svg5"
   inkscape:version="1.1.1 (3bf5ae0d25, 2021-09-20)"
   sodipodi:docname="sign.svg"
   xmlns:inkscape="http://www.inkscape.org/namespaces/inkscape"
   xmlns:sodipodi="http://sodipodi.sourceforge.net/DTD/sodipodi-0.dtd"
   xmlns="http://www.w3.org/2000/svg"
   xmlns:svg="http://www.w3.org/2000/svg">
  <sodipodi:namedview
     id="namedview7"
     pagecolor="#ffffff"
     bordercolor="#666666"
     borderopacity="1.0"
     inkscape:pageshadow="2"
     inkscape:pageopacity="0.0"
     inkscape:pagecheckerboard="0"
     inkscape:document-units="mm"
     showgrid="false"
     inkscape:zoom="32"
     inkscape:cx="1.578125"
     inkscape:cy="1121.7656"
     inkscape:window-width="1920"
     inkscape:window-height="1017"
     inkscape:window-x="-8"
     inkscape:window-y="-8"
     inkscape:window-maximized="1"
     inkscape:current-layer="layer1" />
  <defs
     id="defs2">
    <pattern
       id="EMFhbasepattern"
       patternUnits="userSpaceOnUse"
       width="6"
       height="6"
       x="0"
       y="0" />
  </defs>
  <g
     inkscape:label="Laag 1"
     inkscape:groupmode="layer"
     id="layer1">
    <path
       style="fill:#ec1b23;stroke-width:1"
       d="m 0,247.01125 v -50 h 50 49.999997 v 50 50 H 50 0 Z m 88.70674,40.64908 c 0.81928,-0.061 2.15458,-0.21689 2.41309,-0.28178 l 0.137,-0.0344 v -5.10068 -5.10068 l -0.13661,0.0316 c -0.0751,0.0174 -0.4135,0.11338 -0.75193,0.21327 -2.38157,0.70303 -6.17416,0.91232 -9.52433,0.52559 -2.485891,-0.28697 -5.167834,-0.9678 -7.164543,-1.8188 -2.139022,-0.91165 -4.308792,-2.281 -5.662064,-3.57338 -0.208853,-0.19945 -0.395957,-0.34641 -0.415793,-0.32657 -0.05109,0.0511 0.246594,1.56697 0.491597,2.5034 1.31725,5.03456 4.09289,8.6423 8.290097,10.77537 2.515696,1.2785 5.047806,1.92506 8.650136,2.20876 0.60078,0.0473 2.93068,0.0335 3.67335,-0.0218 z m -68.913176,-6.04901 c 0,-0.0632 0.728845,-5.31728 0.767403,-5.53206 l 0.03543,-0.19733 H 18.186511 15.77663 l 0.03387,0.16697 c 0.04185,0.20629 0.765089,5.43526 0.765089,5.53154 0,0.0505 0.440612,0.0695 1.608986,0.0695 0.884942,0 1.608986,-0.0174 1.608986,-0.0387 z m 63.965156,-7.03489 c 3.13905,-0.36276 5.65264,-1.37607 7.05553,-2.84433 l 0.47294,-0.49498 -0.69824,-0.0425 c -3.3726,-0.20538 -6.39738,-1.40194 -9.56284,-3.78295 -1.232461,-0.92703 -1.989935,-1.60467 -3.248332,-2.90598 -1.882265,-1.94645 -2.748689,-2.79206 -3.39994,-3.31825 -4.086272,-3.30162 -8.483551,-4.06868 -12.770376,-2.22765 -0.727262,0.31233 -1.54212,0.7674 -2.128631,1.18877 l -0.298141,0.2142 0.473584,0.08 c 1.282969,0.2167 3.061452,1.05751 4.705167,2.22445 2.262065,1.60593 4.671755,3.9717 6.966515,6.83952 0.387456,0.48422 0.824864,1.03066 0.972022,1.21433 0.655738,0.81842 1.573503,1.64286 2.413619,2.16817 1.286861,0.80465 3.184511,1.44203 4.918033,1.65187 0.300546,0.0364 0.61475,0.076 0.69824,0.0881 0.44373,0.0641 2.72311,0.0291 3.43085,-0.0527 z m -63.190725,-32.77161 -0.01548,-30.73771 -0.14176,-0.35122 c -0.198592,-0.49202 -0.702968,-1.02059 -1.213663,-1.27187 -0.376228,-0.18512 -0.443954,-0.19818 -1.011456,-0.1951 -0.523785,0.003 -0.656442,0.0254 -0.955506,0.16282 -0.406742,0.18682 -0.890629,0.61878 -1.107266,0.98845 -0.363137,0.61964 -0.336591,-1.86895 -0.336591,31.554 v 30.58833 h 2.398596 2.398595 z M 91.25683,260.7679 v -5.46011 l -0.34912,-0.0367 c -2.74464,-0.28866 -5.13802,-1.0108 -8.06011,-2.43194 -5.248529,-2.55259 -10.544406,-7.13507 -14.926094,-12.91542 l -0.678033,-0.89446 -0.01925,0.74267 c -0.02403,0.92719 0.08032,2.63496 0.236436,3.86957 1.175106,9.29271 6.781682,16.40203 16.070531,20.37794 1.20553,0.51601 3.32393,1.24265 4.59874,1.57746 0.95516,0.25085 2.70556,0.62192 2.95993,0.62747 l 0.16697,0.004 v -5.46011 z M 14.268367,235.29298 v -28.80996 h -0.961751 c -1.503488,0 -2.155966,0.22022 -2.929388,0.98872 -0.3778404,0.37543 -0.6687604,0.88985 -0.8158844,1.44269 -0.07638,0.28701 -0.08823,3.80435 -0.08886,26.36979 -6.5e-4,23.56448 0.0084,26.07404 0.09547,26.41166 0.290524,1.1268 1.2220334,2.04674 2.3489964,2.31981 0.185576,0.045 0.739832,0.0791 1.334417,0.0821 l 1.017001,0.005 z m 35.551906,28.71779 c 1.166426,-0.29706 2.067368,-1.198 2.364432,-2.36443 0.08092,-0.31774 0.09216,-1.87444 0.09216,-12.76563 v -12.40376 h 0.548353 c 0.386097,0 0.555073,0.0225 0.571058,0.0759 0.01249,0.0417 0.0951,0.3218 0.183572,0.62234 0.19725,0.67003 0.667286,1.63677 1.033236,2.12508 0.370929,0.49495 1.047378,1.17623 1.538463,1.54943 0.518665,0.39417 1.592537,0.92314 2.264478,1.11544 2.562449,0.73336 5.256972,-0.005 7.102819,-1.94636 1.286497,-1.35305 1.941743,-2.99559 1.942326,-4.86892 6.07e-4,-1.89512 -0.661615,-3.54501 -1.974809,-4.92027 -2.048579,-2.14539 -5.185605,-2.78516 -7.927164,-1.61668 -1.933633,0.82414 -3.495475,2.61594 -4.026889,4.61978 l -0.143838,0.54238 -0.555085,0.0174 -0.555084,0.0174 -0.0159,-12.4036 -0.0159,-12.40361 -0.136878,-0.35939 c -0.357126,-0.9377 -1.097063,-1.66578 -2.018556,-1.9862 -0.339635,-0.1181 -0.549144,-0.14061 -1.502733,-0.16148 l -1.108075,-0.0243 v 28.81575 28.81575 h 0.989065 c 0.684942,0 1.100337,-0.0283 1.350941,-0.0922 z m 8.720266,-24.25731 c -0.829138,-0.33677 -1.5985,-0.91793 -2.109524,-1.59349 -0.285648,-0.37762 -0.714041,-1.20136 -0.788435,-1.51605 l -0.03947,-0.16697 h 1.737002 1.737001 v 1.73042 c 0,0.95173 -0.02049,1.72966 -0.04554,1.72873 -0.02505,-9.3e-4 -0.246011,-0.0831 -0.491034,-0.18264 z m 3.147378,-1.542 v -1.73451 h 1.730419 c 0.951731,0 1.730419,0.013 1.730419,0.029 0,0.0159 -0.06953,0.21369 -0.154505,0.43945 -0.324511,0.86216 -1.062192,1.78932 -1.828124,2.29772 -0.317492,0.21074 -1.053886,0.57372 -1.341597,0.6613 l -0.136612,0.0416 z m -6.071645,-4.51271 c 0,-0.21225 0.605812,-1.3296 0.938228,-1.73045 0.558012,-0.6729 1.357337,-1.23715 2.128371,-1.50242 0.193893,-0.0667 0.361916,-0.12129 0.373386,-0.12129 0.01147,0 0.02085,0.77869 0.02085,1.73042 v 1.73042 h -1.730419 c -1.610175,0 -1.730419,-0.007 -1.730419,-0.10668 z m 6.071645,-1.62374 c 0,-0.95173 0.01583,-1.73042 0.03518,-1.73042 0.01935,0 0.217437,0.0726 0.440194,0.16126 0.855841,0.34075 1.622574,0.91168 2.139818,1.59334 0.303813,0.40039 0.741493,1.22378 0.818209,1.53927 l 0.0406,0.16697 h -1.737 -1.737001 z m -36.215464,29.15083 c 0.665725,-0.30477 1.079515,-0.75238 1.307127,-1.41395 0.11583,-0.33666 0.117809,-0.74823 0.117809,-24.49957 0,-23.75879 -0.0019,-24.1627 -0.11788,-24.49255 -0.642339,-1.82758 -3.092369,-2.17103 -4.197977,-0.5885 -0.120729,0.17281 -0.264882,0.45889 -0.320341,0.63574 -0.09337,0.29775 -0.09967,2.116 -0.08508,24.57776 l 0.01575,24.25622 0.177934,0.36298 c 0.304514,0.62119 0.93788,1.13866 1.597775,1.3054 0.398584,0.10071 1.122119,0.0317 1.50488,-0.14353 z m 6.312611,0.0216 c 0.266558,-0.10197 0.462838,-0.23853 0.731571,-0.50898 0.395512,-0.39803 0.579738,-0.72964 0.687654,-1.2378 0.09166,-0.43162 0.09823,-47.86367 0.0067,-48.34938 -0.137138,-0.72772 -0.686929,-1.42031 -1.380193,-1.73866 -0.301308,-0.13837 -0.432893,-0.16087 -0.957538,-0.16372 -0.567502,-0.003 -0.635228,0.01 -1.011456,0.1951 -0.510695,0.25128 -1.015071,0.77985 -1.213663,1.27187 l -0.14176,0.35122 v 24.25623 24.25622 l 0.140899,0.34892 c 0.153196,0.37937 0.616933,0.93155 0.960842,1.1441 0.61382,0.37936 1.463934,0.44765 2.176948,0.17488 z m 6.430495,-0.0475 c 0.504014,-0.23585 0.904488,-0.63786 1.148473,-1.15289 l 0.192738,-0.40684 0.01548,-24.21171 0.01548,-24.21171 -0.12731,-0.37792 c -0.58247,-1.72903 -2.807388,-2.18227 -4.036133,-0.82219 -0.297028,0.32877 -0.49579,0.78023 -0.570201,1.29512 -0.08389,0.58052 -0.08454,47.438 -6.62e-4,48.01828 0.140194,0.96986 0.696707,1.65275 1.611586,1.97756 0.524521,0.18621 1.212985,0.14386 1.750552,-0.1077 z m 6.055519,0.11098 c 0.678151,-0.21166 1.236915,-0.74167 1.519211,-1.44106 l 0.141709,-0.35108 0.01594,-24.01336 c 0.01127,-16.97557 -0.0032,-24.10623 -0.04946,-24.33026 -0.161911,-0.78465 -0.747771,-1.51189 -1.439056,-1.78633 -0.274708,-0.10906 -0.471595,-0.13903 -0.925723,-0.1409 -0.521081,-0.002 -0.614952,0.0157 -0.971637,0.18474 -0.505788,0.2397 -0.93913,0.67304 -1.17883,1.17883 l -0.187117,0.39483 v 24.31694 24.31694 l 0.193242,0.39466 c 0.318121,0.6497 0.961039,1.18219 1.614981,1.33761 0.359078,0.0853 0.876666,0.0602 1.26674,-0.0616 z M 88.85853,249.83351 c 0.75386,-0.0695 2.14284,-0.29014 2.269,-0.36036 0.11271,-0.0627 -0.0669,-0.1931 -1.50807,-1.09449 -1.35624,-0.84828 -2.03849,-1.3158 -2.9087,-1.99319 -2.65632,-2.06774 -4.62772,-4.52623 -5.77885,-7.2067 -0.1721,-0.40073 -0.51744,-1.34323 -0.76743,-2.09444 -1.140017,-3.42575 -2.235421,-5.74637 -3.768244,-7.98306 -2.246509,-3.27811 -5.012362,-5.30667 -8.174469,-5.9954 -0.523722,-0.11408 -0.801457,-0.13375 -1.889041,-0.13383 -0.773479,-6e-5 -1.33442,0.0255 -1.42598,0.065 l -0.150935,0.0651 0.242009,0.12372 c 0.377602,0.19305 1.018895,0.81852 1.516467,1.47906 1.765664,2.34393 3.370868,6.30835 4.887547,12.07088 0.498209,1.89291 0.878542,2.99021 1.489896,4.29847 1.537948,3.29113 4.291093,6.01791 7.49686,7.42508 1.59676,0.7009 3.53059,1.18805 5.3734,1.35359 0.55491,0.0498 2.47602,0.0378 3.09654,-0.0195 z m 2.3983,-10.86062 v -5.45786 l -0.62351,-0.36372 c -1.94588,-1.13511 -3.84139,-2.96849 -5.47608,-5.29658 -1.731,-2.46529 -3.36218,-5.993 -4.25516,-9.20261 -0.0922,-0.33147 -0.18693,-0.62471 -0.21045,-0.65165 -0.1083,-0.12401 -0.707064,2.56461 -0.914708,4.10729 -0.161804,1.2021 -0.220966,3.48056 -0.12113,4.66477 0.187365,2.22238 0.749548,4.49237 1.613178,6.51367 1.56873,3.67159 4.4081,7.19067 7.89249,9.78182 0.68655,0.51054 1.9673,1.36177 2.04983,1.36239 0.025,1.8e-4 0.0455,-2.4557 0.0455,-5.45752 z"
       id="path1004" />
  </g>
</svg>
